HIERARCHY
ROOT joint_0
{
	OFFSET 0.000000 0.000000 0.000000
	CHANNELS 6 Xposition Yposition Zposition Zrotation Yrotation Xrotation 
	JOINT joint_1
	{
		OFFSET 7.566162 2.250183 114.799927
		CHANNELS 3 Zrotation Yrotation Xrotation
		JOINT joint_2
		{
			OFFSET -5.201660 -0.414001 104.936035
			CHANNELS 3 Zrotation Yrotation Xrotation
			JOINT joint_3
			{
				OFFSET -6.923584 -0.419739 104.718018
				CHANNELS 3 Zrotation Yrotation Xrotation
				JOINT joint_4
				{
					OFFSET 3.108887 2.881104 149.449951
					CHANNELS 3 Zrotation Yrotation Xrotation
					JOINT joint_5
					{
						OFFSET 19.988770 5.920349 90.786987
						CHANNELS 3 Zrotation Yrotation Xrotation
						End Site
						{
							OFFSET 0.000000 0.000000 0.000000
						}
					}
				}
				JOINT joint_6
				{
					OFFSET 9.283936 -30.015930 84.410034
					CHANNELS 3 Zrotation Yrotation Xrotation
					JOINT joint_7
					{
						OFFSET 47.243164 -155.716736 -23.241089
						CHANNELS 3 Zrotation Yrotation Xrotation
						JOINT joint_8
						{
							OFFSET 31.323730 -15.356873 -268.798950
							CHANNELS 3 Zrotation Yrotation Xrotation
							JOINT joint_9
							{
								OFFSET 28.122314 -2.114624 -262.450012
								CHANNELS 3 Zrotation Yrotation Xrotation
								End Site
								{
									OFFSET 0.000000 0.000000 0.000000
								}
							}
						}
					}
				}
				JOINT joint_10
				{
					OFFSET -5.580566 33.311218 83.498047
					CHANNELS 3 Zrotation Yrotation Xrotation
					JOINT joint_11
					{
						OFFSET -22.773438 160.515381 -27.138062
						CHANNELS 3 Zrotation Yrotation Xrotation
						JOINT joint_12
						{
							OFFSET 27.004395 30.848877 -267.937988
							CHANNELS 3 Zrotation Yrotation Xrotation
							JOINT joint_13
							{
								OFFSET 32.625000 14.824585 -261.518005
								CHANNELS 3 Zrotation Yrotation Xrotation
								End Site
								{
									OFFSET 0.000000 0.000000 0.000000
								}
							}
						}
					}
				}
			}
		}
	}
	JOINT joint_14
	{
		OFFSET 20.623535 -83.447632 -106.174011
		CHANNELS 3 Zrotation Yrotation Xrotation
		JOINT joint_15
		{
			OFFSET 0.661865 -23.563843 -459.915039
			CHANNELS 3 Zrotation Yrotation Xrotation
			JOINT joint_16
			{
				OFFSET -23.461670 -28.727966 -444.760971
				CHANNELS 3 Zrotation Yrotation Xrotation
				JOINT joint_17
				{
					OFFSET 178.992920 54.047363 -80.113001
					CHANNELS 3 Zrotation Yrotation Xrotation
					End Site
					{
						OFFSET 0.000000 0.000000 0.000000
					}
				}
			}
		}
	}
	JOINT joint_18
	{
		OFFSET -19.571533 84.686279 -105.380005
		CHANNELS 3 Zrotation Yrotation Xrotation
		JOINT joint_19
		{
			OFFSET -22.949951 3.639404 -459.933044
			CHANNELS 3 Zrotation Yrotation Xrotation
			JOINT joint_20
			{
				OFFSET -33.690674 4.092651 -445.010971
				CHANNELS 3 Zrotation Yrotation Xrotation
				JOINT joint_21
				{
					OFFSET 187.419678 18.953857 -76.759001
					CHANNELS 3 Zrotation Yrotation Xrotation
					End Site
					{
						OFFSET 0.000000 0.000000 0.000000
					}
				}
			}
		}
	}
}
MOTION
Frames: 14
Frame Time: 0.016667
-2917.394043 883.397278 1103.463989 -11.504358 6.472304 -1.110723 -0.002654 8.661553 5.106986 0.404997 -1.148611 -1.044173 0.736347 1.482819 0.874428 0.992707 -7.903997 -0.893789 0.000000 0.000000 0.000000 5.849861 8.768081 -8.732836 -5.613577 8.540067 -8.418832 2.228012 -68.696954 50.179346 0.000000 0.000000 0.000000 3.853499 11.468827 -1.973491 11.621584 13.221016 12.360120 -0.382559 -68.214444 -44.763543 0.000000 0.000000 0.000000 2.153296 -17.887593 -0.017325 -2.159922 20.793948 -4.859138 -2.543502 -7.722714 1.351184 0.000000 0.000000 0.000000 -1.595458 -1.653649 3.768274 -0.846798 31.809230 -9.966499 -8.141953 9.480842 -3.739103 0.000000 0.000000 0.000000 
-2906.992920 881.162842 1098.475952 -11.204877 5.673432 -0.929248 -0.087146 9.694727 5.610393 0.531233 -1.223537 -1.190474 0.923649 1.607418 0.925728 1.039967 -7.705839 -1.127908 0.000000 0.000000 0.000000 5.580633 8.826419 -9.536434 -6.218870 8.709756 -8.874350 1.794774 -70.609795 51.010170 0.000000 0.000000 0.000000 3.509498 11.594125 -2.168776 11.593790 13.357774 12.316714 -0.388738 -69.152527 -44.723820 0.000000 0.000000 0.000000 2.941891 -19.225650 -0.372134 -1.985183 25.882028 -4.942690 -2.749527 -7.664745 1.297090 0.000000 0.000000 0.000000 -2.170874 -2.890033 5.361284 -1.381456 37.027072 -11.693357 -11.514366 8.731378 -4.766735 0.000000 0.000000 0.000000 
-2896.794189 877.893250 1094.776978 -10.575908 4.798166 -0.699117 -0.341609 10.612842 5.806629 0.630074 -1.349314 -1.246956 1.091384 1.729926 0.936025 1.047016 -7.371480 -1.279615 0.000000 0.000000 0.000000 5.270376 8.869591 -10.046306 -6.845296 8.767294 -9.298751 1.361907 -71.833271 52.015689 0.000000 0.000000 0.000000 3.123991 11.766158 -2.249610 11.550685 13.512018 12.468462 -0.390746 -70.105637 -44.416143 0.000000 0.000000 0.000000 3.421519 -19.626419 -0.692487 -1.926974 29.740772 -4.902538 -3.003601 -7.453090 1.172835 0.000000 0.000000 0.000000 -2.585260 -4.116260 6.978506 -1.831110 42.012916 -12.974728 -14.818695 8.207341 -5.817338 0.000000 0.000000 0.000000 
-2886.308105 872.664978 1092.772949 -9.555051 3.819071 -0.514282 -0.866532 11.211148 5.671059 0.730107 -1.476216 -1.237091 1.283305 1.873353 0.887176 0.991602 -6.799187 -1.306649 0.000000 0.000000 0.000000 4.908435 8.854530 -10.047734 -7.486963 8.590273 -9.667097 0.968284 -71.923519 53.392492 0.000000 0.000000 0.000000 2.671184 12.067771 -2.126148 11.552217 13.737939 13.032738 -0.322011 -71.132890 -43.818489 0.000000 0.000000 0.000000 3.455480 -18.581134 -0.712295 -2.063016 31.167865 -4.948211 -3.238147 -7.639844 1.158149 0.000000 0.000000 0.000000 -2.897760 -5.405492 8.711773 -2.293944 46.847370 -13.833514 -17.883300 7.845719 -6.852983 0.000000 0.000000 0.000000 
-2876.025391 866.401489 1092.057007 -8.311262 2.805744 -0.396539 -1.544573 11.619311 5.353324 0.844719 -1.602743 -1.201205 1.521014 2.011720 0.792014 0.895558 -6.090624 -1.236014 0.000000 0.000000 0.000000 4.504495 8.814571 -9.748715 -8.140942 8.296441 -10.006446 0.578144 -71.233077 54.978328 0.000000 0.000000 0.000000 2.179448 12.426936 -1.862011 11.530678 13.960339 13.761838 -0.248945 -72.129200 -42.943979 0.000000 0.000000 0.000000 3.174527 -16.755766 -0.470100 -2.330922 31.578573 -5.136189 -3.545509 -8.074451 1.181278 0.000000 0.000000 0.000000 -3.137391 -6.846105 10.525540 -2.795689 51.564995 -14.285140 -20.576829 7.507260 -7.832078 0.000000 0.000000 0.000000 
-2866.813721 861.155273 1092.875000 -7.385279 1.993120 -0.243274 -2.095396 11.885279 4.946713 1.027525 -1.703840 -1.148055 1.829866 2.095326 0.684408 0.805591 -5.434228 -1.160390 0.000000 0.000000 0.000000 4.204429 8.709600 -9.386649 -8.612339 8.029052 -10.151888 0.291240 -69.842659 56.164257 0.000000 0.000000 0.000000 1.862849 12.624475 -1.663727 11.351380 14.027062 14.322079 -0.319802 -72.669012 -41.776936 0.000000 0.000000 0.000000 2.863226 -14.959975 -0.267213 -2.496091 31.343367 -5.329952 -3.737386 -8.239984 1.161407 0.000000 0.000000 0.000000 -3.018295 -8.327659 12.001054 -3.004505 55.562043 -14.226319 -21.688795 7.005790 -8.311940 0.000000 0.000000 0.000000 
-2859.345947 857.607483 1095.692017 -7.003333 1.560497 0.055152 -2.389915 11.921319 4.400367 1.312429 -1.756175 -1.070231 2.214149 2.137919 0.574391 0.737761 -4.905480 -1.114633 0.000000 0.000000 0.000000 4.099440 8.515200 -8.979351 -8.810011 7.808093 -10.039693 0.164722 -67.618617 56.649788 0.000000 0.000000 0.000000 1.835555 12.495520 -1.665450 10.973498 13.841132 14.682001 -0.606158 -72.585902 -40.274882 0.000000 0.000000 0.000000 2.667228 -13.506613 -0.286440 -2.482717 30.432449 -5.511367 -3.748919 -8.010999 1.085129 0.000000 0.000000 0.000000 -2.340355 -9.927112 12.983122 -2.721226 58.807186 -13.735502 -20.416409 5.943576 -7.925150 0.000000 0.000000 0.000000 
-2852.950439 855.077881 1100.042969 -6.906103 1.364979 0.451464 -2.504270 11.733652 3.745203 1.636420 -1.770232 -0.972357 2.608458 2.157939 0.458961 0.677343 -4.437725 -1.071040 0.000000 0.000000 0.000000 4.097196 8.261035 -8.490002 -8.804506 7.589899 -9.762673 0.162727 -64.775225 56.640068 0.000000 0.000000 0.000000 1.984144 12.179861 -1.766493 10.453845 13.503789 14.896586 -1.019198 -72.058678 -38.524834 0.000000 0.000000 0.000000 2.459086 -12.115063 -0.443766 -2.380866 28.893477 -5.698508 -3.655012 -7.569244 0.978230 0.000000 0.000000 0.000000 -1.314714 -11.615537 13.616025 -2.175675 61.386043 -13.003541 -17.575473 4.385786 -6.878668 0.000000 0.000000 0.000000 
-2846.474121 853.568604 1104.776001 -6.947880 1.184970 0.837475 -2.441290 11.441537 3.200640 1.926400 -1.753401 -0.889860 2.925236 2.141733 0.355975 0.626520 -4.016901 -1.047737 0.000000 0.000000 0.000000 4.076833 8.005654 -8.073472 -8.661966 7.418641 -9.390993 0.239863 -61.971677 56.308544 0.000000 0.000000 0.000000 2.156261 11.897880 -1.848507 9.828369 13.176838 14.792105 -1.460852 -71.228575 -36.710134 0.000000 0.000000 0.000000 2.198346 -10.745032 -0.693493 -2.232920 27.265609 -5.785857 -3.490179 -6.937095 0.837261 0.000000 0.000000 0.000000 -0.241031 -13.116908 13.986520 -1.594220 62.980345 -12.202508 -14.384147 2.858558 -5.604686 0.000000 0.000000 0.000000 
-2839.432617 853.263855 1109.836060 -7.124571 0.955895 1.208271 -2.154289 11.015359 2.824271 2.176615 -1.674326 -0.827472 3.135709 2.060261 0.266255 0.586608 -3.633366 -1.060485 0.000000 0.000000 0.000000 4.001273 7.793866 -7.796702 -8.405240 7.347073 -8.908862 0.369967 -59.391177 55.721417 0.000000 0.000000 0.000000 2.302341 11.748387 -1.868923 9.055203 12.927561 14.223807 -1.925463 -70.104260 -34.749445 0.000000 0.000000 0.000000 1.870345 -9.344467 -1.081770 -2.058528 25.623442 -5.700529 -3.266202 -6.073993 0.645020 0.000000 0.000000 0.000000 0.908478 -14.330397 14.092433 -0.889943 63.427048 -11.322094 -10.834848 1.694547 -4.170767 0.000000 0.000000 0.000000 
-2832.310303 853.981323 1115.279053 -7.423465 0.760540 1.586971 -1.689757 10.452977 2.529201 2.390230 -1.538075 -0.767227 3.251182 1.927392 0.189682 0.556599 -3.291504 -1.099281 0.000000 0.000000 0.000000 3.911411 7.585937 -7.583708 -8.042735 7.319982 -8.334800 0.558026 -56.880296 54.858285 0.000000 0.000000 0.000000 2.481766 11.634452 -1.872120 8.205561 12.690231 13.350890 -2.400663 -68.716755 -32.724405 0.000000 0.000000 0.000000 1.519644 -7.986731 -1.616091 -1.872605 23.898381 -5.474006 -2.995603 -5.023508 0.411701 0.000000 0.000000 0.000000 2.189165 -15.341452 13.930986 -0.002331 62.883051 -10.332789 -6.951943 0.607729 -2.634741 0.000000 0.000000 0.000000 
-2825.404785 855.176086 1120.120972 -7.715250 0.595750 1.890287 -1.207627 9.917934 2.331671 2.520350 -1.411980 -0.714829 3.267101 1.799820 0.142530 0.537145 -3.002040 -1.154925 0.000000 0.000000 0.000000 3.808976 7.321463 -7.392175 -7.615129 7.236861 -7.769857 0.803553 -54.534130 53.802398 0.000000 0.000000 0.000000 2.696215 11.487129 -1.866827 7.467865 12.435966 12.449282 -2.801300 -67.242049 -31.020632 0.000000 0.000000 0.000000 1.221691 -6.829544 -2.145046 -1.699026 22.450816 -5.198835 -2.719388 -3.996771 0.190979 0.000000 0.000000 0.000000 3.253800 -16.161224 13.652297 0.782648 61.645728 -9.429249 -3.855924 -0.569228 -1.418735 0.000000 0.000000 0.000000 
-2818.902588 856.795349 1124.150024 -7.973768 0.477863 2.063769 -0.757550 9.466761 2.313709 2.539918 -1.331011 -0.697522 3.175331 1.704245 0.136135 0.537267 -2.765847 -1.263421 0.000000 0.000000 0.000000 3.685556 6.952201 -7.248699 -7.113396 7.055087 -7.228616 1.121478 -52.368055 52.515681 0.000000 0.000000 0.000000 2.974417 11.281748 -1.862272 6.884195 12.150756 11.585444 -3.116118 -65.673937 -29.805687 0.000000 0.000000 0.000000 1.021897 -5.974413 -2.591542 -1.540820 21.443812 -4.903633 -2.449798 -3.066156 0.000880 0.000000 0.000000 0.000000 3.959348 -16.789790 13.300953 1.368907 59.745917 -8.659385 -1.837117 -1.739036 -0.616694 0.000000 0.000000 0.000000 
-2812.616211 858.892822 1127.578003 -8.232395 0.385013 2.140950 -0.322593 9.051394 2.433129 2.481419 -1.272672 -0.709863 3.008462 1.622739 0.155010 0.548602 -2.582423 -1.396670 0.000000 0.000000 0.000000 3.558171 6.529830 -7.133320 -6.554703 6.823343 -6.677226 1.482535 -50.337541 51.056487 0.000000 0.000000 0.000000 3.282126 11.050606 -1.863313 6.394047 11.851887 10.703083 -3.368558 -64.016010 -28.866134 0.000000 0.000000 0.000000 0.893492 -5.315892 -2.985040 -1.387379 20.733383 -4.590213 -2.178402 -2.204804 -0.164812 0.000000 0.000000 0.000000 4.388485 -17.173913 12.894142 1.851907 57.149574 -7.989716 -0.515534 -2.763504 -0.070506 0.000000 0.000000 0.000000 
